G04 ===== Begin FILE IDENTIFICATION =====*
G04 File Format:  Gerber RS274X*
G04 ===== End FILE IDENTIFICATION =====*
%FSLAX24Y24*%
%MOIN*%
%SFA1.0000B1.0000*%
%OFA0.0B0.0*%
%ADD14R,0.078740X0.118110*%
%ADD15C,0.000984*%
%ADD16R,0.047244X0.196850*%
%ADD17R,0.166665X0.047244*%
%ADD18R,0.118110X0.047244*%
%ADD19R,0.047244X0.688976*%
%ADD20R,0.452756X0.047244*%
%ADD21R,0.524724X0.236220*%
%ADD22R,0.137795X0.746969*%
%ADD23R,0.320866X0.118110*%
%ADD24R,0.437008X0.047244*%
%ADD25R,0.250000X0.236220*%
%ADD26R,0.100787X1.084157*%
%ADD27R,0.127953X0.078740*%
%ADD28R,0.110315X0.051181*%
%ADD29R,0.155512X0.110315*%
%LNcond*%
%IPPOS*%
%LPD*%
G75*
D14*
X14173Y16732D03*
G36*
G01X14567Y16142D02*
G01Y17323D01*
G01X15039D01*
G01Y16142D01*
G01X14567D01*
G37*
D15*
G01X15000Y17520D02*
G01X14606Y17323D01*
G01Y17520D02*
G01X15000Y17323D01*
G01X14606Y17520D02*
G01Y17323D01*
G01X15000D01*
G01Y17520D01*
G01X14606D01*
D16*
X6732Y26378D03*
G36*
G01X6969Y24409D02*
G01Y24882D01*
G01X6496D01*
G01Y24409D01*
G01X6969D01*
G37*
D17*
X7802Y24646D03*
G36*
G01X9108Y24409D02*
G01Y24882D01*
G01X8635D01*
G01Y24409D01*
G01X9108D01*
G37*
D17*
X9941Y24646D03*
G36*
G01X11247Y24409D02*
G01Y24882D01*
G01X10774D01*
G01Y24409D01*
G01X11247D01*
G37*
D17*
X12080Y24646D03*
G36*
G01X13386Y24409D02*
G01Y24882D01*
G01X12913D01*
G01Y24409D01*
G01X13386D01*
G37*
D18*
X13976Y24646D03*
G36*
G01X15039Y24882D02*
G01X14567D01*
G01Y24409D01*
G01X15039D01*
G01Y24882D01*
G37*
D19*
X14803Y28327D03*
Y20965D03*
D16*
X13150Y26220D03*
D20*
X2264Y22677D03*
D16*
X11011Y26220D03*
X8871D03*
G36*
G01X6496Y24409D02*
G01Y24882D01*
G03X5276Y23661I0J-1220D01*
G01X5748D01*
G02X6496Y24409I748J0D01*
G01X6496Y24409D01*
G37*
G36*
G01X4528Y22913D02*
G01Y22441D01*
G03X5748Y23661I0J1220D01*
G01X5276D01*
G02X4528Y22913I-748J0D01*
G01X4528Y22913D01*
G37*
G36*
G01X15039Y17323D02*
G01Y16142D01*
G01X15925Y16339D01*
G01Y17126D01*
G01X15039Y17323D01*
G37*
G36*
G01X13583Y16142D02*
G01Y17323D01*
G01X12402Y16929D01*
G01Y16535D01*
G01X13583Y16142D01*
G37*
D21*
X8400Y16732D03*
G36*
G01X4398Y17913D02*
G01Y15551D01*
G01X5776D01*
G01Y17913D01*
G01X4398D01*
G37*
D22*
X5087Y11816D03*
D15*
G01X13583Y16929D02*
G01X13780Y16535D01*
G01X13583D02*
G01X13780Y16929D01*
G01X13583Y16535D02*
G01X13780D01*
G01Y16929D01*
G01X13583D01*
G01Y16535D01*
D23*
X1613Y16732D03*
G36*
G01X30163Y15551D02*
G01Y17913D01*
G01X28981Y17284D01*
G01Y16181D01*
G01X30163Y15551D01*
G37*
G36*
G01X11024Y17913D02*
G01Y15551D01*
G01X12205Y16535D01*
G01Y16929D01*
G01X11024Y17913D01*
G37*
G36*
G01X20827Y16181D02*
G01Y17284D01*
G01X20039Y16929D01*
G01Y16535D01*
G01X20827Y16181D01*
G37*
G36*
G01X4398Y15551D02*
G01Y17913D01*
G01X3217Y17323D01*
G01Y16142D01*
G01X4398Y15551D01*
G37*
D16*
X27283Y25984D03*
G36*
G01X27520Y24016D02*
G01Y24488D01*
G01X27047D01*
G01Y24016D01*
G01X27520D01*
G37*
D17*
X26214Y24252D03*
G36*
G01X25381Y24016D02*
G01Y24488D01*
G01X24908D01*
G01Y24016D01*
G01X25381D01*
G37*
D17*
X24075Y24252D03*
G36*
G01X23241Y24016D02*
G01Y24488D01*
G01X22769D01*
G01Y24016D01*
G01X23241D01*
G37*
D17*
X21936Y24252D03*
G36*
G01X21102Y24016D02*
G01Y24488D01*
G01X20630D01*
G01Y24016D01*
G01X21102D01*
G37*
D18*
X20039Y24252D03*
G36*
G01X18976Y24016D02*
G01X19449D01*
G01Y24488D01*
G01X18976D01*
G01Y24016D01*
G37*
D19*
X19213Y27933D03*
Y20571D03*
D16*
X20866Y25827D03*
D24*
X31279Y22677D03*
D16*
X23005Y25827D03*
X25144D03*
G36*
G01X28071Y23465D02*
G01X28543D01*
G03X27520Y24488I-1024J0D01*
G01Y24016D01*
G02X28071Y23465I0J-551D01*
G01X28071Y23465D01*
G37*
G36*
G01X28543Y23465D02*
G01X28071D01*
G03X29094Y22441I1024J0D01*
G01Y22913D01*
G02X28543Y23465I0J551D01*
G01X28543Y23465D01*
G37*
G36*
G01X19449Y16339D02*
G01Y17126D01*
G01X18976D01*
G01Y16339D01*
G01X19449D01*
G37*
D25*
X31413Y16732D03*
G36*
G01X26619Y17284D02*
G01Y16181D01*
G01X28981D01*
G01Y17284D01*
G01X26619D01*
G37*
D26*
X27800Y10760D03*
D27*
X18337Y16732D03*
G36*
G01X19449Y17126D02*
G01Y16339D01*
G01X19843Y16535D01*
G01Y16929D01*
G01X19449Y17126D01*
G37*
G36*
G01X20827Y17284D02*
G01Y16181D01*
G03X22438Y17792I0J1611D01*
G01X21335D01*
G02X20827Y17284I-508J0D01*
G01X20827Y17284D01*
G37*
D28*
X21886Y18048D03*
G36*
G01X22945Y18811D02*
G01Y19914D01*
G03X21335Y18303I0J-1611D01*
G01X22438D01*
G02X22945Y18811I508J0D01*
G01X22945Y18811D01*
G37*
D29*
X23723Y19363D03*
G36*
G01X25008Y18303D02*
G01X26111D01*
G03X24501Y19914I-1611J0D01*
G01Y18811D01*
G02X25008Y18303I0J-508D01*
G01X25008Y18303D01*
G37*
D28*
X25560Y18048D03*
G36*
G01X26111Y17792D02*
G01X25008D01*
G03X26619Y16181I1611J0D01*
G01Y17284D01*
G02X26111Y17792I0J508D01*
G01X26111Y17792D01*
G37*
G36*
G01X32663Y17913D02*
G01Y15551D01*
G01X33450Y16142D01*
G01Y17323D01*
G01X32663Y17913D01*
G37*
D15*
G01X2600Y4137D02*
G01Y3308D01*
G01X2640Y4137D02*
G01Y3308D01*
G01X2363Y4137D02*
G01X2324Y3900D01*
G01Y4137D01*
G01X2916D01*
G01Y3900D01*
G01X2876Y4137D01*
G01X2482Y3308D02*
G01X2758D01*
G01X3547Y4137D02*
G01X3705Y3308D01*
G01X3587Y4137D02*
G01X3705Y3505D01*
G01X3863Y4137D02*
G01X3705Y3308D01*
G01X3863Y4137D02*
G01X4021Y3308D01*
G01X3903Y4137D02*
G01X4021Y3505D01*
G01X4179Y4137D02*
G01X4021Y3308D01*
G01X3429Y4137D02*
G01X3705D01*
G01X4061D02*
G01X4297D01*
G01X5087D02*
G01X4968Y4097D01*
G01X4890Y4019D01*
G01X4850Y3940D01*
G01X4811Y3782D01*
G01Y3663D01*
G01X4850Y3505D01*
G01X4890Y3426D01*
G01X4968Y3347D01*
G01X5087Y3308D01*
G01X5166D01*
G01X5284Y3347D01*
G01X5363Y3426D01*
G01X5403Y3505D01*
G01X5442Y3663D01*
G01Y3782D01*
G01X5403Y3940D01*
G01X5363Y4019D01*
G01X5284Y4097D01*
G01X5166Y4137D01*
G01X5087D01*

G01X5008Y4097D01*
G01X4929Y4019D01*
G01X4890Y3940D01*
G01X4850Y3782D01*
G01Y3663D01*
G01X4890Y3505D01*
G01X4929Y3426D01*
G01X5008Y3347D01*
G01X5087Y3308D01*
G01X5166D02*
G01X5245Y3347D01*
G01X5324Y3426D01*
G01X5363Y3505D01*
G01X5403Y3663D01*
G01Y3782D01*
G01X5363Y3940D01*
G01X5324Y4019D01*
G01X5245Y4097D01*
G01X5166Y4137D01*
G01X6034Y3663D02*
G01X6745D01*
G01X7416Y4137D02*
G01Y3308D01*
G01X7455Y4137D02*
G01Y3308D01*
G01X7297Y4137D02*
G01X7771D01*
G01X7889Y4097D01*
G01X7929Y4058D01*
G01X7968Y3979D01*
G01Y3861D01*
G01X7929Y3782D01*
G01X7889Y3742D01*
G01X7771Y3703D01*
G01X7455D01*
G01X7771Y4137D02*
G01X7850Y4097D01*
G01X7889Y4058D01*
G01X7929Y3979D01*
G01Y3861D01*
G01X7889Y3782D01*
G01X7850Y3742D01*
G01X7771Y3703D01*
G01X7297Y3308D02*
G01X7574D01*
G01X8876Y4137D02*
G01X8758Y4097D01*
G01X8679Y4019D01*
G01X8639Y3940D01*
G01X8600Y3782D01*
G01Y3663D01*
G01X8639Y3505D01*
G01X8679Y3426D01*
G01X8758Y3347D01*
G01X8876Y3308D01*
G01X8955D01*
G01X9074Y3347D01*
G01X9153Y3426D01*
G01X9192Y3505D01*
G01X9232Y3663D01*
G01Y3782D01*
G01X9192Y3940D01*
G01X9153Y4019D01*
G01X9074Y4097D01*
G01X8955Y4137D01*
G01X8876D01*

G01X8797Y4097D01*
G01X8718Y4019D01*
G01X8679Y3940D01*
G01X8639Y3782D01*
G01Y3663D01*
G01X8679Y3505D01*
G01X8718Y3426D01*
G01X8797Y3347D01*
G01X8876Y3308D01*
G01X8955D02*
G01X9034Y3347D01*
G01X9113Y3426D01*
G01X9153Y3505D01*
G01X9192Y3663D01*
G01Y3782D01*
G01X9153Y3940D01*
G01X9113Y4019D01*
G01X9034Y4097D01*
G01X8955Y4137D01*
G01X10179D02*
G01Y3308D01*
G01X10218Y4137D02*
G01Y3308D01*
G01X10061Y4137D02*
G01X10337D01*
G01X10061Y3308D02*
G01X10337D01*
G01X11205Y4137D02*
G01Y3308D01*
G01X11245Y4137D02*
G01X11718Y3387D01*
G01X11245Y4058D02*
G01X11718Y3308D01*
G01Y4137D02*
G01Y3308D01*
G01X11087Y4137D02*
G01X11245D01*
G01X11600D02*
G01X11837D01*
G01X11087Y3308D02*
G01X11324D01*
G01X12705Y4137D02*
G01Y3308D01*
G01X12745Y4137D02*
G01Y3308D01*
G01X12468Y4137D02*
G01X12429Y3900D01*
G01Y4137D01*
G01X13021D01*
G01Y3900D01*
G01X12982Y4137D01*
G01X12587Y3308D02*
G01X12863D01*
G01X13613Y3663D02*
G01X14324D01*
G01X14995Y4137D02*
G01Y3308D01*
G01X15034Y4137D02*
G01Y3308D01*
G01X15271Y3900D02*
G01Y3584D01*
G01X14876Y4137D02*
G01X15508D01*
G01Y3900D01*
G01X15468Y4137D01*
G01X15034Y3742D02*
G01X15271D01*
G01X14876Y3308D02*
G01X15153D01*
G01X16455Y4137D02*
G01X16337Y4097D01*
G01X16258Y4019D01*
G01X16218Y3940D01*
G01X16179Y3782D01*
G01Y3663D01*
G01X16218Y3505D01*
G01X16258Y3426D01*
G01X16337Y3347D01*
G01X16455Y3308D01*
G01X16534D01*
G01X16653Y3347D01*
G01X16732Y3426D01*
G01X16771Y3505D01*
G01X16811Y3663D01*
G01Y3782D01*
G01X16771Y3940D01*
G01X16732Y4019D01*
G01X16653Y4097D01*
G01X16534Y4137D01*
G01X16455D01*

G01X16376Y4097D01*
G01X16297Y4019D01*
G01X16258Y3940D01*
G01X16218Y3782D01*
G01Y3663D01*
G01X16258Y3505D01*
G01X16297Y3426D01*
G01X16376Y3347D01*
G01X16455Y3308D01*
G01X16534D02*
G01X16613Y3347D01*
G01X16692Y3426D01*
G01X16732Y3505D01*
G01X16771Y3663D01*
G01Y3782D01*
G01X16732Y3940D01*
G01X16692Y4019D01*
G01X16613Y4097D01*
G01X16534Y4137D01*
G01X17482D02*
G01Y3545D01*
G01X17521Y3426D01*
G01X17600Y3347D01*
G01X17718Y3308D01*
G01X17797D01*
G01X17916Y3347D01*
G01X17995Y3426D01*
G01X18034Y3545D01*
G01Y4137D01*
G01X17521D02*
G01Y3545D01*
G01X17560Y3426D01*
G01X17639Y3347D01*
G01X17718Y3308D01*
G01X17363Y4137D02*
G01X17639D01*
G01X17916D02*
G01X18153D01*
G01X18784D02*
G01Y3308D01*
G01X18824Y4137D02*
G01Y3308D01*
G01X18666Y4137D02*
G01X19139D01*
G01X19258Y4097D01*
G01X19297Y4058D01*
G01X19337Y3979D01*
G01Y3900D01*
G01X19297Y3821D01*
G01X19258Y3782D01*
G01X19139Y3742D01*
G01X18824D01*
G01X19139Y4137D02*
G01X19218Y4097D01*
G01X19258Y4058D01*
G01X19297Y3979D01*
G01Y3900D01*
G01X19258Y3821D01*
G01X19218Y3782D01*
G01X19139Y3742D01*
G01X18666Y3308D02*
G01X18942D01*
G01X19021Y3742D02*
G01X19100Y3703D01*
G01X19139Y3663D01*
G01X19258Y3387D01*
G01X19297Y3347D01*
G01X19337D01*
G01X19376Y3387D01*
G01X19100Y3703D02*
G01X19139Y3624D01*
G01X19218Y3347D01*
G01X19258Y3308D01*
G01X19337D01*
G01X19376Y3387D01*
G01Y3426D01*
G01X21784Y4019D02*
G01X21824Y3900D01*
G01Y4137D01*
G01X21784Y4019D01*
G01X21705Y4097D01*
G01X21587Y4137D01*
G01X21508D01*
G01X21389Y4097D01*
G01X21310Y4019D01*
G01X21271Y3940D01*
G01X21232Y3821D01*
G01Y3624D01*
G01X21271Y3505D01*
G01X21310Y3426D01*
G01X21389Y3347D01*
G01X21508Y3308D01*
G01X21587D01*
G01X21705Y3347D01*
G01X21784Y3426D01*
G01X21508Y4137D02*
G01X21429Y4097D01*
G01X21350Y4019D01*
G01X21310Y3940D01*
G01X21271Y3821D01*
G01Y3624D01*
G01X21310Y3505D01*
G01X21350Y3426D01*
G01X21429Y3347D01*
G01X21508Y3308D01*
G01X21784Y3624D02*
G01Y3308D01*
G01X21824Y3624D02*
G01Y3308D01*
G01X21666Y3624D02*
G01X21942D01*
G01X22810Y4137D02*
G01Y3308D01*
G01X22850Y4137D02*
G01Y3308D01*
G01X22692Y4137D02*
G01X22968D01*
G01X22692Y3308D02*
G01X22968D01*
G01X24310Y4019D02*
G01X24350Y3900D01*
G01Y4137D01*
G01X24310Y4019D01*
G01X24231Y4097D01*
G01X24113Y4137D01*
G01X24034D01*
G01X23916Y4097D01*
G01X23837Y4019D01*
G01X23797Y3940D01*
G01X23758Y3821D01*
G01Y3624D01*
G01X23797Y3505D01*
G01X23837Y3426D01*
G01X23916Y3347D01*
G01X24034Y3308D01*
G01X24113D01*
G01X24231Y3347D01*
G01X24310Y3426D01*
G01X24034Y4137D02*
G01X23955Y4097D01*
G01X23876Y4019D01*
G01X23837Y3940D01*
G01X23797Y3821D01*
G01Y3624D01*
G01X23837Y3505D01*
G01X23876Y3426D01*
G01X23955Y3347D01*
G01X24034Y3308D01*
G01X24310Y3624D02*
G01Y3308D01*
G01X24350Y3624D02*
G01Y3308D01*
G01X24192Y3624D02*
G01X24468D01*
G01X25060Y4137D02*
G01Y3308D01*
G01X25100Y4137D02*
G01Y3308D01*
G01X25574Y4137D02*
G01Y3308D01*
G01X25613Y4137D02*
G01Y3308D01*
G01X24942Y4137D02*
G01X25218D01*
G01X25455D02*
G01X25731D01*
G01X25100Y3742D02*
G01X25574D01*
G01X24942Y3308D02*
G01X25218D01*
G01X25455D02*
G01X25731D01*
G01X26363Y4137D02*
G01Y3308D01*
G01X26403Y4137D02*
G01Y3308D01*
G01X26639Y3900D02*
G01Y3584D01*
G01X26245Y4137D02*
G01X26876D01*
G01Y3900D01*
G01X26837Y4137D01*
G01X26403Y3742D02*
G01X26639D01*
G01X26245Y3308D02*
G01X26876D01*
G01Y3545D01*
G01X26837Y3308D01*
G01X27626Y4137D02*
G01Y3308D01*
G01X27666Y4137D02*
G01Y3308D01*
G01X27508Y4137D02*
G01X27981D01*
G01X28100Y4097D01*
G01X28139Y4058D01*
G01X28179Y3979D01*
G01Y3900D01*
G01X28139Y3821D01*
G01X28100Y3782D01*
G01X27981Y3742D01*
G01X27666D01*
G01X27981Y4137D02*
G01X28060Y4097D01*
G01X28100Y4058D01*
G01X28139Y3979D01*
G01Y3900D01*
G01X28100Y3821D01*
G01X28060Y3782D01*
G01X27981Y3742D01*
G01X27508Y3308D02*
G01X27784D01*
G01X27863Y3742D02*
G01X27942Y3703D01*
G01X27981Y3663D01*
G01X28100Y3387D01*
G01X28139Y3347D01*
G01X28179D01*
G01X28218Y3387D01*
G01X27942Y3703D02*
G01X27981Y3624D01*
G01X28060Y3347D01*
G01X28100Y3308D01*
G01X28179D01*
G01X28218Y3387D01*
G01Y3426D01*
G01X29126Y4137D02*
G01Y3308D01*
G01X29166Y4137D02*
G01Y3308D01*
G01X28889Y4137D02*
G01X28850Y3900D01*
G01Y4137D01*
G01X29442D01*
G01Y3900D01*
G01X29403Y4137D01*
G01X29008Y3308D02*
G01X29284D01*
G01X30626Y4137D02*
G01X30113Y3308D01*
G01X30666Y4137D02*
G01X30153Y3308D01*
G01Y4137D02*
G01X30113Y3900D01*
G01Y4137D01*
G01X30666D01*
G01X30113Y3308D02*
G01X30666D01*
G01Y3545D01*
G01X30626Y3308D01*
G36*
G01X33465Y33465D02*
G01X23622D01*
G01X20630Y26811D01*
G01X33465D01*
G01Y33465D01*
G37*
G36*
G01X9843Y33465D02*
G01X13386Y27205D01*
G01X0D01*
G01Y33465D01*
G01X9843D01*
G37*
M02*

