G04 ===== Begin FILE IDENTIFICATION =====*
G04 File Format:  Gerber RS274X*
G04 ===== End FILE IDENTIFICATION =====*
%FSLAX24Y24*%
%MOIN*%
%SFA1.0000B1.0000*%
%OFA0.0B0.0*%
%ADD14C,0.000984*%
%LNports*%
%IPPOS*%
%LPD*%
G75*
D14*
G01X13199Y27598D02*
G01X13100D01*
G01X13248Y27500D02*
G01X13051D01*
G01X13346Y27402D02*
G01X12953D01*
G01X13150Y27205D02*
G01Y27402D01*
G01X11060Y27598D02*
G01X10961D01*
G01X11109Y27500D02*
G01X10912D01*
G01X11207Y27402D02*
G01X10814D01*
G01X11011Y27205D02*
G01Y27402D01*
G01X8921Y27598D02*
G01X8822D01*
G01X8970Y27500D02*
G01X8773D01*
G01X9068Y27402D02*
G01X8675D01*
G01X8871Y27205D02*
G01Y27402D01*
G01X6782Y27756D02*
G01X6683D01*
G01X6831Y27657D02*
G01X6634D01*
G01X6929Y27559D02*
G01X6535D01*
G01X6732Y27362D02*
G01Y27559D01*
G01X27333Y27362D02*
G01X27234D01*
G01X27382Y27264D02*
G01X27185D01*
G01X27480Y27165D02*
G01X27087D01*
G01X27283Y26969D02*
G01Y27165D01*
G01X20915Y27205D02*
G01X20817D01*
G01X20965Y27106D02*
G01X20768D01*
G01X21063Y27008D02*
G01X20669D01*
G01X20866Y26811D02*
G01Y27008D01*
G01X23054Y27205D02*
G01X22956D01*
G01X23104Y27106D02*
G01X22907D01*
G01X23202Y27008D02*
G01X22808D01*
G01X23005Y26811D02*
G01Y27008D01*
G01X25194Y27205D02*
G01X25095D01*
G01X25243Y27106D02*
G01X25046D01*
G01X25341Y27008D02*
G01X24947D01*
G01X25144Y26811D02*
G01Y27008D01*
M02*

